<svg xmlns="http://www.w3.org/2000/svg" version="1.0" width="512.000000pt" height="512.000000pt" viewBox="0 0 512.000000 512.000000" preserveAspectRatio="xMidYMid meet">

<g transform="translate(0.000000,512.000000) scale(0.100000,-0.100000)" fill="#015bab" stroke="none">
<path d="M2105 5109 c-676 -27 -1118 -141 -1385 -356 -137 -111 -220 -236 -277 -420 l-28 -88 0 -1460 0 -1460 22 -83 c102 -384 435 -660 842 -698 l73 -7 -201 -201 -201 -201 0 -68 0 -67 1610 0 1610 0 0 67 0 68 -201 201 -201 201 78 8 c406 37 730 308 836 697 l23 83 0 1450 c0 1351 -1 1455 -18 1519 -121 471 -515 708 -1317 791 -309 31 -835 42 -1265 24z m185 -1744 l0 -675 -675 0 -675 0 0 675 0 675 675 0 675 0 0 -675z m1890 0 l0 -675 -675 0 -675 0 0 675 0 675 675 0 675 0 0 -675z m-2687 -1505 c109 -41 192 -128 238 -249 30 -80 24 -212 -13 -294 -37 -79 -116 -160 -197 -200 -62 -30 -72 -32 -176 -32 -101 0 -115 2 -170 29 -204 100 -290 348 -190 548 51 103 169 195 279 218 61 13 164 4 229 -20z m2356 20 c161 -30 293 -166 324 -332 31 -168 -67 -355 -228 -434 -55 -27 -69 -29 -170 -29 -99 0 -116 3 -168 27 -79 37 -160 117 -199 196 -27 54 -33 79 -36 154 -4 74 -1 99 18 151 50 136 145 225 280 261 66 18 110 19 179 6z" fill="#015bab"/>
</g>
</svg>