<?xml version="1.0" standalone="no"?>
<!DOCTYPE svg PUBLIC "-//W3C//DTD SVG 20010904//EN"
 "http://www.w3.org/TR/2001/REC-SVG-20010904/DTD/svg10.dtd">
<svg version="1.0" xmlns="http://www.w3.org/2000/svg"
 width="512.000000pt" height="512.000000pt" viewBox="0 0 512.000000 512.000000"
 preserveAspectRatio="xMidYMid meet">

<g transform="translate(0.000000,512.000000) scale(0.100000,-0.100000)"
fill="#000000" stroke="none">
<path d="M2450 5107 c-123 -28 -146 -48 -618 -520 -300 -301 -442 -449 -442
-463 0 -38 37 -74 77 -74 33 0 48 12 157 120 l122 120 669 -670 670 -670 -835
0 -835 0 -162 163 c-189 189 -213 227 -213 342 0 107 28 156 166 296 103 104
114 119 114 152 0 39 -36 77 -73 77 -25 0 -246 -216 -289 -283 -85 -133 -90
-330 -11 -467 14 -25 75 -95 135 -156 59 -60 108 -113 108 -117 0 -3 -208 -8
-462 -9 l-463 -3 -61 -28 c-76 -35 -135 -94 -171 -172 l-28 -60 0 -1210 0
-1210 26 -56 c37 -79 90 -133 167 -171 l67 -33 2285 0 2285 0 60 28 c77 36
147 110 176 185 l22 57 -2 1205 c-3 1295 0 1230 -56 1327 -34 59 -2169 2198
-2234 2238 -100 61 -243 87 -351 62z m235 -171 c51 -23 168 -136 1031 -1001
536 -536 974 -977 974 -980 0 -3 -129 -5 -287 -5 l-288 0 -425 425 c-454 453
-448 449 -501 406 -16 -13 -23 -29 -23 -55 0 -35 18 -55 369 -406 l370 -370
-305 0 -305 0 -722 722 -723 723 152 152 153 153 415 -415 c375 -375 419 -415
448 -415 42 0 72 30 72 73 0 29 -38 70 -415 447 l-415 415 48 48 c55 56 97 84
155 103 61 20 153 12 222 -20z m2151 -2155 c23 -10 54 -35 69 -55 25 -32 29
-50 37 -139 4 -57 7 -595 6 -1197 -3 -1089 -3 -1095 -24 -1135 -11 -22 -40
-53 -63 -70 l-43 -30 -2246 -3 c-1576 -2 -2258 0 -2284 8 -50 14 -97 56 -119
105 -18 38 -19 96 -19 1208 0 1032 2 1172 15 1205 21 49 52 81 100 103 39 18
123 19 2285 19 2171 0 2246 -1 2286 -19z"/>
<path d="M464 2554 c-59 -29 -71 -98 -25 -145 22 -21 39 -29 66 -29 45 0 95
45 95 85 0 41 -26 82 -61 94 -40 14 -37 14 -75 -5z"/>
<path d="M4553 2556 c-88 -39 -61 -176 34 -176 45 0 69 14 89 51 40 78 -42
161 -123 125z"/>
<path d="M926 2545 c-55 -19 -101 -69 -126 -134 -45 -121 -131 -200 -265 -242
-81 -25 -137 -75 -154 -136 -6 -21 -11 -84 -11 -139 0 -87 3 -105 21 -128 26
-33 79 -36 109 -6 18 18 20 33 20 129 0 117 3 124 55 136 17 4 63 23 104 42
103 49 185 133 242 249 l44 89 1585 0 1585 0 41 -85 c69 -143 187 -247 324
-286 30 -9 61 -23 68 -32 9 -12 12 -133 12 -526 0 -281 -4 -516 -8 -523 -4 -6
-41 -24 -82 -39 -41 -14 -93 -38 -115 -51 -90 -56 -172 -156 -210 -256 -21
-56 -37 -67 -99 -67 -54 0 -86 -25 -86 -68 0 -65 58 -92 159 -72 80 15 116 48
161 145 61 132 131 196 260 236 80 25 106 43 138 98 l27 46 0 550 0 550 -23
42 c-27 51 -76 85 -152 107 -114 32 -193 106 -253 236 -37 83 -77 123 -135
140 -25 6 -560 10 -1617 10 -1318 -1 -1586 -3 -1619 -15z"/>
<path d="M2457 2338 c-172 -15 -363 -101 -497 -224 -117 -109 -197 -239 -247
-401 -23 -77 -26 -106 -27 -233 -1 -171 17 -249 89 -395 85 -171 214 -298 390
-385 151 -74 201 -85 390 -84 148 0 166 2 245 28 331 110 547 358 606 698 68
389 -161 791 -536 941 -125 50 -260 67 -413 55z m287 -170 c320 -88 544 -402
523 -733 -20 -314 -244 -585 -548 -659 -85 -21 -253 -21 -338 0 -241 58 -433
237 -518 479 -25 73 -27 92 -27 220 0 125 3 149 27 220 86 260 313 453 582
494 80 13 212 3 299 -21z"/>
<path d="M2505 2105 c-22 -21 -25 -33 -25 -103 l0 -79 -40 -12 c-93 -28 -151
-115 -151 -228 0 -125 53 -186 223 -255 44 -18 99 -49 122 -69 40 -35 41 -39
41 -98 0 -53 -4 -64 -27 -88 -24 -23 -38 -28 -98 -31 -60 -4 -75 -1 -112 21
-24 14 -52 34 -62 46 -42 46 -110 12 -110 -54 0 -57 88 -129 182 -150 32 -7
32 -7 32 -69 0 -80 24 -116 75 -116 51 0 75 37 75 115 l0 63 57 28 c102 51
153 154 140 283 -13 119 -77 188 -240 254 -114 46 -152 80 -152 137 0 24 8 46
19 59 42 47 156 52 236 11 52 -27 84 -20 106 21 31 62 -8 107 -113 130 l-53
12 0 74 c0 65 -3 77 -25 98 -13 14 -36 25 -50 25 -14 0 -37 -11 -50 -25z"/>
<path d="M399 1561 l-24 -19 -3 -289 c-2 -206 0 -301 9 -332 19 -66 71 -114
155 -139 131 -40 221 -122 265 -242 28 -78 78 -124 148 -139 73 -16 2775 -16
2820 0 53 19 68 77 31 117 l-21 22 -1394 0 c-766 0 -1400 3 -1409 6 -8 3 -34
45 -57 92 -68 141 -186 242 -329 283 -25 7 -51 19 -57 28 -10 11 -13 86 -13
298 l0 284 -25 24 c-29 30 -64 32 -96 6z"/>
<path d="M3737 1559 c-46 -27 -41 -105 9 -128 16 -7 108 -11 265 -11 l240 0
24 25 c14 13 25 36 25 50 0 14 -11 37 -25 50 l-24 25 -248 0 c-155 0 -255 -5
-266 -11z"/>
<path d="M826 1509 c-36 -28 -36 -80 0 -108 25 -20 39 -21 266 -21 282 0 298
4 298 78 0 19 -8 40 -20 52 -19 19 -33 20 -269 20 -236 0 -250 -1 -275 -21z"/>
<path d="M436 539 c-33 -39 -33 -79 0 -118 47 -56 142 -36 160 34 16 63 -26
115 -92 115 -35 0 -47 -5 -68 -31z"/>
<path d="M4525 545 c-19 -18 -25 -35 -25 -65 0 -56 34 -90 89 -90 59 0 96 35
96 90 0 34 -6 47 -28 66 -39 33 -99 33 -132 -1z"/>
</g>
</svg>
