<svg xmlns="http://www.w3.org/2000/svg" version="1.0" width="512.000000pt" height="512.000000pt" viewBox="0 0 512.000000 512.000000" preserveAspectRatio="xMidYMid meet">

<g transform="translate(0.000000,512.000000) scale(0.100000,-0.100000)" fill="#015bab" stroke="none">
<path d="M2240 4360 c-487 -38 -921 -151 -1136 -297 -149 -101 -298 -331 -432 -663 l-38 -95 -271 -5 c-305 -6 -308 -6 -347 -84 l-19 -38 43 -207 c23 -113 48 -216 56 -228 28 -44 63 -58 163 -63 l94 -5 -27 -32 c-119 -141 -197 -400 -182 -603 17 -218 91 -395 227 -544 l48 -53 3 -280 3 -281 30 -43 c17 -23 50 -53 74 -66 43 -22 51 -23 315 -23 242 0 275 2 311 19 91 42 115 97 115 261 l0 120 1290 0 1290 0 0 -120 c0 -164 24 -219 115 -261 36 -17 69 -19 311 -19 264 0 272 1 315 23 24 13 58 43 74 66 l30 43 3 276 3 275 46 51 c173 191 258 465 223 716 -21 158 -96 336 -186 448 l-27 32 87 0 c96 0 142 14 172 53 14 17 34 91 63 235 l44 210 -19 38 c-39 78 -42 78 -346 84 l-271 5 -56 135 c-114 269 -209 428 -326 546 -70 70 -95 88 -195 136 -230 112 -510 183 -872 223 -169 19 -635 27 -798 15z m810 -404 c400 -50 698 -150 808 -271 70 -76 175 -284 262 -517 l29 -78 -1589 0 -1589 0 29 78 c67 180 164 385 219 466 67 98 157 153 351 216 179 59 392 97 690 124 109 9 671 -3 790 -18z m-1775 -1555 c82 -40 165 -129 196 -208 29 -74 32 -196 6 -268 -35 -101 -136 -202 -240 -240 -36 -13 -77 -19 -132 -19 -116 1 -182 29 -266 113 -87 88 -113 150 -114 276 0 80 4 97 31 155 50 107 152 192 261 220 21 5 73 8 117 6 62 -3 91 -10 141 -35z m2856 19 c113 -35 207 -124 249 -237 32 -85 26 -216 -15 -298 -56 -114 -160 -192 -288 -216 -163 -30 -337 62 -414 218 -25 53 -28 68 -28 163 0 88 4 113 23 154 85 185 283 276 473 216z" fill="#015bab"/>
</g>
</svg>
